<svg width="800" height="800" viewBox="0 0 800 800" fill="none" xmlns="http://www.w3.org/2000/svg">
<path d="M746.125 427.475L683.9 645.6C674.725 677.625 645.1 700 611.825 700H275C261.175 700 250 688.8 250 675V325C250 319.625 251.725 314.375 254.95 310.075L389.75 129.075C404.7 110.35 426.25 100 449.35 100C491.075 100 525 133.925 525 175.65V300H650.05C681.675 300 710.725 314.475 729.75 339.725C748.85 365.025 754.8 397 746.125 427.475Z" fill="url(#paint0_linear_1016_103)"/>
<path d="M175 300H75C61.175 300 50 311.2 50 325V675C50 688.8 61.175 700 75 700H175C188.825 700 200 688.8 200 675V325C200 311.2 188.825 300 175 300ZM125 637.5C104.3 637.5 87.5 620.7 87.5 600C87.5 579.3 104.3 562.5 125 562.5C145.7 562.5 162.5 579.3 162.5 600C162.5 620.7 145.7 637.5 125 637.5Z" fill="url(#paint1_linear_1016_103)"/>
<defs>
<linearGradient id="paint0_linear_1016_103" x1="500.012" y1="100" x2="500.012" y2="700" gradientUnits="userSpaceOnUse">
<stop stop-color="#E03BCC"/>
<stop offset="1" stop-color="#914FF3"/>
</linearGradient>
<linearGradient id="paint1_linear_1016_103" x1="125" y1="300" x2="125" y2="700" gradientUnits="userSpaceOnUse">
<stop stop-color="#E03BCC"/>
<stop offset="1" stop-color="#914FF3"/>
</linearGradient>
</defs>
</svg>
