<svg width="800" height="800" viewBox="0 0 800 800" fill="none" xmlns="http://www.w3.org/2000/svg">
<g clip-path="url(#clip0_1016_297)">
<path d="M799.084 372.145C796.112 358.029 786.206 346.359 772.755 341.12L725.569 322.782V371.292L734.503 374.765C738.534 376.34 741.508 379.843 742.391 384.067C743.273 388.304 741.98 392.72 738.917 395.781L436.161 698.525C430.17 704.5 421.223 706.384 413.317 703.323L65.2438 567.95C45.8906 560.618 45.8766 534.29 48.3031 500.203C50.4219 470.681 59.9016 432.003 92.7812 433.826L393.097 550.626C420.016 561.092 450.569 554.615 470.939 534.128L761.202 241.951C771.356 231.737 775.683 217.078 772.695 202.992C769.708 188.893 759.817 177.251 746.394 172.04L447.919 55.9621C421 45.4965 390.431 51.9731 370.077 72.4606L33.8219 410.911C7.22656 432.797 0 473.609 0 509.859C0 546.107 2.41406 589.615 43.5062 606.525L33.8219 604.257L393.258 744.032C420.102 754.467 450.569 748.064 470.939 727.695L787.487 411.147C797.688 400.947 802.058 386.273 799.084 372.145Z" fill="url(#paint0_linear_1016_297)"/>
</g>
<defs>
<linearGradient id="paint0_linear_1016_297" x1="400" y1="51.0234" x2="400" y2="748.971" gradientUnits="userSpaceOnUse">
<stop stop-color="#F835BF"/>
<stop offset="1" stop-color="#8653FA"/>
</linearGradient>
<clipPath id="clip0_1016_297">
<rect width="800" height="800" fill="white"/>
</clipPath>
</defs>
</svg>
