<svg width="800" height="800" viewBox="0 0 800 800" fill="none" xmlns="http://www.w3.org/2000/svg">
<path d="M0 435.667C0 446.792 6.94147 456.735 17.3844 460.568L64.9625 478.035C68.5415 469.485 73.7903 461.474 80.7394 454.525C94.6223 440.642 113.081 432.995 132.716 432.995C152.349 432.995 170.808 440.642 184.692 454.525L330.305 600.136C350.793 620.625 356.626 650.295 347.821 676.023C368.992 691.527 397.391 694.199 421.37 682.143L621.629 581.458C654.349 565.01 667.875 527.521 656.798 495.281C656.707 495.281 656.614 495.284 656.525 495.284C629.867 495.284 604.752 483.57 587.618 463.143L449.759 298.781L430.292 318.248C416.645 331.893 398.502 339.411 379.202 339.411C359.902 339.411 341.757 331.895 328.111 318.248L321.472 311.608C307.825 297.96 300.31 279.816 300.31 260.516C300.31 241.217 307.826 223.073 321.472 209.426L376.748 154.15L365.209 140.395C344.115 115 308.261 107.572 278.814 122.498L128.503 198.683L36.4295 161.64C18.9979 154.627 0.00168421 167.46 0.00168421 186.25V435.667H0Z" fill="url(#paint0_linear_1016_89)"/>
<path d="M800 424.865V220.714C800 206.063 788.123 194.187 773.474 194.187H656L535.166 106.968C522.727 97.9893 508.222 93.5859 493.787 93.5859C475.559 93.5859 457.443 100.608 443.746 114.305L389.132 168.918L335.046 223.004C314.327 243.722 314.327 277.314 335.046 298.032L341.685 304.672C352.044 315.032 365.622 320.211 379.199 320.211C392.777 320.211 406.354 315.032 416.713 304.672L451 270.386L602.326 450.805C613.608 464.258 629.251 472.781 646.044 475.299C649.5 475.817 653 476.087 656.521 476.087C661.576 476.087 666.677 475.543 671.733 474.429L779.176 450.771C791.338 448.094 800 437.319 800 424.865Z" fill="url(#paint1_linear_1016_89)"/>
<path d="M239.927 690.514C250.531 701.118 264.429 706.419 278.327 706.419C292.226 706.419 306.124 701.118 316.728 690.514C325.003 682.24 330.033 671.957 331.851 661.235C334.692 644.479 329.66 626.647 316.728 613.712L171.116 468.101C160.512 457.497 146.614 452.195 132.716 452.195C118.818 452.195 104.919 457.497 94.3156 468.101C89.3977 473.021 85.6352 478.651 82.9986 484.657C74.2643 504.553 78.0268 528.611 94.3156 544.9L239.927 690.514Z" fill="url(#paint2_linear_1016_89)"/>
<defs>
<linearGradient id="paint0_linear_1016_89" x1="330.301" y1="114.852" x2="330.301" y2="689.68" gradientUnits="userSpaceOnUse">
<stop stop-color="#F635C0"/>
<stop offset="1" stop-color="#8553FA"/>
</linearGradient>
<linearGradient id="paint1_linear_1016_89" x1="559.753" y1="93.5859" x2="559.753" y2="476.087" gradientUnits="userSpaceOnUse">
<stop stop-color="#F635C0"/>
<stop offset="1" stop-color="#8553FA"/>
</linearGradient>
<linearGradient id="paint2_linear_1016_89" x1="205.521" y1="452.195" x2="205.521" y2="706.419" gradientUnits="userSpaceOnUse">
<stop stop-color="#F635C0"/>
<stop offset="1" stop-color="#8553FA"/>
</linearGradient>
</defs>
</svg>
