<svg width="800" height="800" viewBox="0 0 800 800" fill="none" xmlns="http://www.w3.org/2000/svg">
<path d="M533.334 66.6641H133.334C96.5147 66.6641 66.667 96.5117 66.667 133.331V666.664C66.667 703.483 96.5147 733.331 133.334 733.331H533.334C570.153 733.331 600 703.483 600 666.664V133.331C600 96.5117 570.153 66.6641 533.334 66.6641Z" fill="url(#paint0_linear_1016_96)"/>
<path d="M133.333 566.669C133.333 557.829 136.845 549.35 143.096 543.099C149.347 536.848 157.826 533.336 166.666 533.336H300C308.84 533.336 317.319 536.848 323.57 543.099C329.821 549.35 333.333 557.829 333.333 566.669C333.333 575.51 329.821 583.988 323.57 590.239C317.319 596.491 308.84 600.003 300 600.003H166.666C157.826 600.003 149.347 596.491 143.096 590.239C136.845 583.988 133.333 575.51 133.333 566.669ZM630.333 176.669L409.666 397.003C406.577 400.117 404.133 403.811 402.474 407.872C400.815 411.934 399.974 416.282 400 420.669V466.669C400 475.51 403.512 483.988 409.763 490.239C416.014 496.491 424.492 500.003 433.333 500.003H479.666C484.077 499.984 488.439 499.091 492.502 497.374C496.564 495.658 500.246 493.152 503.333 490.003L723.666 270.003C729.774 263.772 733.195 255.394 733.195 246.669C733.195 237.944 729.774 229.567 723.666 223.336L677 176.669C670.769 170.562 662.391 167.141 653.666 167.141C644.941 167.141 636.564 170.562 630.333 176.669Z" fill="url(#paint1_linear_1016_96)"/>
<defs>
<linearGradient id="paint0_linear_1016_96" x1="333.334" y1="66.6641" x2="333.334" y2="733.331" gradientUnits="userSpaceOnUse">
<stop stop-color="#F436C2"/>
<stop offset="1" stop-color="#954FF3"/>
</linearGradient>
<linearGradient id="paint1_linear_1016_96" x1="433.264" y1="167.141" x2="433.264" y2="600.003" gradientUnits="userSpaceOnUse">
<stop stop-color="#F436C2"/>
<stop offset="1" stop-color="white"/>
</linearGradient>
</defs>
</svg>
