<svg width="800" height="800" viewBox="0 0 800 800" fill="none" xmlns="http://www.w3.org/2000/svg">
<path d="M680.517 201.609H650.391V346.995H680.517C697.167 346.995 710.694 333.494 710.694 316.844V231.784C710.694 215.136 697.169 201.609 680.517 201.609Z" fill="url(#paint0_linear_1016_276)"/>
<path d="M680.517 550.539H650.391V695.9H680.517C697.167 695.9 710.694 682.375 710.694 665.723V580.664C710.694 564.016 697.169 550.539 680.517 550.539Z" fill="url(#paint1_linear_1016_276)"/>
<path d="M680.517 376.078H650.391V521.439H680.517C697.167 521.439 710.694 507.937 710.694 491.287V406.228C710.694 389.603 697.169 376.078 680.517 376.078Z" fill="url(#paint2_linear_1016_276)"/>
<path d="M536.084 145.069H187.964C175.048 145.069 163.623 139.892 155.126 131.47C146.68 122.95 141.551 111.523 141.503 98.6328C141.551 85.7422 146.68 74.2922 155.126 65.8203C163.623 57.3734 175.048 52.1969 187.964 52.1969H565.333C579.737 52.1969 591.408 40.5266 591.408 26.0984C591.408 11.6703 579.736 0 565.333 0H187.964C160.791 0 135.986 11.0844 118.212 28.9062C100.414 46.6547 89.3062 71.4844 89.3062 98.6328V735.547C89.3062 771.142 118.164 800 153.759 800H536.084C585.156 800 624.878 760.253 624.878 711.23V233.838C624.878 184.814 585.156 145.069 536.084 145.069ZM367.431 641.309C265.331 641.309 224.487 620.069 224.487 607.911C224.487 528.858 319.189 552.589 323.876 507.569C324.975 496.827 323.437 485.986 321.728 478.003C314.794 470.678 308.837 459.766 302.734 442.553C293.506 439.159 284.131 431.347 279.809 412.133C277.686 402.758 281.689 394.189 288.33 388.231C288.33 388.084 288.33 387.962 288.33 387.841L285.253 374.902C285.253 373.07 285.4 371.288 285.547 369.458C282.201 351.806 278.686 328.467 291.772 294.433C295.898 283.691 310.742 270.531 312.305 271.338C315.039 272.705 324.17 276.123 335.425 277.734C345.239 279.175 347.022 276.464 359.814 275.195C385.498 272.608 400.487 271.753 417.578 293.164C469.067 306.884 451.953 374.561 447.583 389.184C453.589 395.069 457.08 403.272 455.053 412.134C450.731 431.348 441.356 439.161 432.153 442.53C426.025 459.791 420.069 470.703 413.183 478.028C411.425 485.987 409.887 496.827 410.986 507.569C415.673 552.589 510.375 528.858 510.375 607.911C510.376 620.069 469.531 641.309 367.431 641.309Z" fill="url(#paint3_linear_1016_276)"/>
<defs>
<linearGradient id="paint0_linear_1016_276" x1="650.391" y1="208.825" x2="752.595" y2="272.116" gradientUnits="userSpaceOnUse">
<stop stop-color="#F635C0"/>
<stop offset="1" stop-color="#8253FC"/>
</linearGradient>
<linearGradient id="paint1_linear_1016_276" x1="650.391" y1="557.754" x2="752.585" y2="621.049" gradientUnits="userSpaceOnUse">
<stop stop-color="#F635C0"/>
<stop offset="1" stop-color="#8253FC"/>
</linearGradient>
<linearGradient id="paint2_linear_1016_276" x1="650.391" y1="383.293" x2="752.585" y2="446.588" gradientUnits="userSpaceOnUse">
<stop stop-color="#F635C0"/>
<stop offset="1" stop-color="#8253FC"/>
</linearGradient>
<linearGradient id="paint3_linear_1016_276" x1="89.3061" y1="39.7059" x2="717.522" y2="667.603" gradientUnits="userSpaceOnUse">
<stop stop-color="#F635C0"/>
<stop offset="1" stop-color="#8253FC"/>
</linearGradient>
</defs>
</svg>
