<svg width="800" height="800" viewBox="0 0 800 800" fill="none" xmlns="http://www.w3.org/2000/svg">
<path d="M684.198 219.629C689.353 214.702 697.797 216.68 698.815 223.738C699.266 226.871 699.5 230.074 699.5 233.331V566.664C699.5 603.483 669.652 633.331 632.833 633.331H166.167C129.348 633.331 99.5 603.483 99.5 566.664V233.331C99.5 228.24 105.407 226.086 109.223 229.456L317.437 413.321C318.102 413.909 318.791 414.47 319.501 415.003C366.909 450.558 432.092 450.558 479.5 415.003C480.562 414.206 481.576 413.347 482.535 412.43L684.198 219.629Z" fill="url(#paint0_linear_1019_344)"/>
<path d="M632.833 166.664C636.733 166.664 638.283 171.293 635.464 173.988L438.067 362.71C414.814 379.21 383.592 379.097 360.45 362.366L155.976 181.804C150.289 176.782 152.181 167.694 159.732 166.971C161.85 166.768 163.996 166.664 166.167 166.664H632.833Z" fill="url(#paint1_linear_1019_344)"/>
<defs>
<linearGradient id="paint0_linear_1019_344" x1="399.5" y1="166.664" x2="399.5" y2="633.331" gradientUnits="userSpaceOnUse">
<stop stop-color="#F535C1"/>
<stop offset="1" stop-color="#8F50F5"/>
</linearGradient>
<linearGradient id="paint1_linear_1019_344" x1="399.5" y1="166.664" x2="399.5" y2="633.331" gradientUnits="userSpaceOnUse">
<stop stop-color="#F535C1"/>
<stop offset="1" stop-color="#8F50F5"/>
</linearGradient>
</defs>
</svg>
