<svg width="800" height="800" viewBox="0 0 800 800" fill="none" xmlns="http://www.w3.org/2000/svg">
<path d="M596.575 202.825C648.15 254.4 680.175 324.7 680.175 400.475C680.175 477.05 648.15 545.8 596.575 597.35C545 648.9 475.475 680.175 399.7 680.175C323.125 680.175 254.375 648.925 202.825 597.35C151.275 545.775 120 477.025 120 400.475C120 324.7 151.25 254.375 202.825 202.825C254.4 151.275 323.15 120 399.7 120C475.475 120 545.025 151.25 596.575 202.825ZM431.725 558.3H433.3C435.65 558.3 438 559.075 439.55 561.425C441.125 563 442.675 564.55 445.8 564.55C446.575 564.55 447.375 563.775 447.375 562.2C447.375 559.075 448.15 555.95 448.15 555.175C448.925 552.825 450.5 552.825 452.05 552.825C452.825 552.825 452.825 552.825 452.825 551.25L451.25 549.675C450.475 549.675 449.675 550.45 449.675 551.25C448.9 552.025 448.1 552.825 447.325 551.25L442.625 554.375L437.15 552.8L427.775 538.725L430.9 518.4C430.9 517.625 430.125 516.05 427.775 515.275C425.425 514.5 425.425 512.925 426.2 512.15C423.075 510.575 419.175 509.025 414.475 509.025C413.7 509.025 411.35 509.8 407.45 510.6C403.55 510.6 401.2 510.6 401.2 509.025C401.2 506.675 403.55 502 405.1 496.525C405.875 494.175 406.675 490.275 407.45 488.7C407.45 487.125 408.225 485.575 408.225 485.575L412.125 476.2L411.35 474.625L405.875 473.85C404.3 473.85 398.85 476.975 394.925 480.1C391.025 484.8 387.9 488.7 387.9 491.825L372.275 494.95C369.15 494.95 366.025 494.175 363.675 491.05C362.9 487.15 360.55 482.45 357.425 477.775C354.3 473.875 353.525 469.95 353.525 466.05C353.525 461.35 354.3 455.1 355.875 451.2C357.45 446.5 357.45 441.05 354.3 436.35C355.075 436.35 357.425 434.775 355.875 433.225L359.775 428.525L360.55 427.75L361.325 428.525C364.45 426.175 369.925 425.4 374.6 426.175C380.075 426.95 383.2 424.6 384.75 420.7L390.225 426.175C391.8 426.95 394.925 421.475 394.925 419.925L392.575 418.35L406.65 415.225L407.425 416.8H413.675L421.5 421.5C422.275 421.5 423.075 420.725 423.85 419.925C425.425 418.35 426.2 418.35 426.975 419.15L434 426.975C433.225 428.55 433.225 430.1 433.225 431.675C434 432.45 434.8 433.25 434.8 434.025C434.8 437.15 441.825 451.225 445.75 451.225C448.1 451.225 448.875 449.65 448.1 446.525V440.275C448.1 436.375 447.325 431.675 445.75 427C443.4 423.1 441.85 417.625 440.275 412.925V411.35C440.275 409 441.85 406.65 444.975 405.1C447.325 403.525 448.875 401.975 448.875 401.975C451.225 400.4 453.575 398.075 456.7 396.5C459.05 394.925 461.4 391.025 462.95 388.675L465.3 383.2V380.075H467.65C467.65 380.075 469.225 379.3 469.225 377.725C469.225 377.725 468.45 376.95 467.65 376.95C466.875 376.175 464.525 374.6 462.95 373.05L464.525 371.475C466.875 369.125 467.65 363.65 466.1 361.325L472.35 358.2C470.775 361.325 475.475 362.1 477.05 361.325L480.175 354.3C478.6 350.4 477.825 354.3 480.175 349.6C482.525 348.825 484.875 348.025 487.2 346.475C489.55 345.7 491.1 344.9 493.45 344.9C494.225 344.9 495.025 345.675 495.025 345.675C496.6 345.675 497.375 344.9 497.375 344.9C497.375 342.55 496.6 341 495.8 341L499.7 332.4C502.825 332.4 505.95 330.825 507.525 327.7L513.775 326.925C515.35 326.925 516.125 326.15 516.125 324.575V323L527.85 319.875L529.425 315.975L526.3 311.275C526.3 311.275 527.075 310.5 527.075 309.7C527.075 308.9 526.3 308.125 525.5 307.35C524.725 307.35 523.925 306.575 523.15 306.575C522.375 305.8 521.575 305 520.8 305H527.05C527.05 305 530.175 304.225 530.175 301.875C530.175 298.75 528.6 297.975 525.475 297.975C516.875 297.975 503.6 301.1 498.9 310.475L494.2 312.825L500.45 306.575L501.225 305C501.225 304.225 500.45 303.425 498.875 302.65H496.525C504.35 302.65 509.025 300.3 512.15 297.95C514.5 295.6 516.85 293.25 522.3 291.7C527.775 292.475 533.25 292.475 538.7 292.475C543.4 291.7 548.075 291.7 553.55 291.7C555.9 290.125 559.025 287 560.575 283.875L568.4 283.1C569.975 284.675 575.425 280.75 575.425 278.4C575.425 276.05 574.65 275.275 572.3 274.5C569.95 273.725 567.6 272.15 567.6 269.8V267.45C568.375 266.675 567.6 265.875 566.825 265.875C563.7 265.875 555.875 269.775 553.55 271.35C551.975 272.925 551.2 270.575 551.2 269L551.975 269.775L555.1 268.2L562.925 265.075L563.7 264.3C563.7 261.175 559 260.4 557.45 260.4C556.675 260.4 555.1 261.175 553.55 261.975C551.975 261.975 550.425 261.975 550.425 260.4L551.2 258.825C545.725 254.925 541.05 247.1 541.05 244.75V241.625C541.825 240.85 541.05 240.85 539.475 240.85H537.125C536.35 241.625 535.55 240.85 535.55 239.275C535.55 237.7 532.425 229.125 528.525 229.125L526.175 231.475C526.175 233.05 525.4 233.825 523.825 234.6C522.25 235.375 521.475 236.175 521.475 236.95H520.7L512.875 241.65C512.875 240.075 512.1 240.075 511.3 240.875C510.525 240.875 510.525 241.65 508.95 241.65H507.375C511.275 241.65 510.5 236.175 507.375 236.175L501.125 236.95C499.55 236.95 499.55 236.95 501.125 235.375C501.9 233.8 503.475 232.25 501.9 230.675C501.9 229.1 501.125 229.1 500.325 229.9L501.9 227.55C503.475 226.775 501.125 223.65 499.55 222.075L492.525 221.3L487.825 216.6C487.05 217.375 486.25 216.6 484.7 215.825C483.925 215.05 482.35 213.475 481.575 213.475L476.1 215.825L462.025 212.7C460.45 212.7 458.125 213.475 458.125 215.825C458.125 216.6 458.125 217.4 458.9 217.4C460.475 218.175 460.475 218.975 460.475 219.75C460.475 220.525 461.25 223.65 462.05 227.575C462.05 231.475 462.05 233.05 459.7 232.275L456.575 236.975C456.575 238.55 458.15 239.325 458.925 239.325C461.275 240.9 463.625 243.225 465.175 245.575C466.75 247.15 466.75 249.475 465.95 251.825L451.1 263.55V264.325C451.1 266.675 451.1 268.225 451.875 269.8C453.45 271.375 453.45 273.7 455 276.05C458.9 277.625 458.9 279.175 455.775 280.75C454.2 280.75 452.65 281.525 451.075 282.325L449.5 283.9C449.5 284.675 448.725 284.675 447.925 284.675H444.025C444.025 284.675 444.025 283.9 444.8 283.9C444.8 283.9 445.575 283.125 445.575 282.325L438.55 278.425L435.425 272.95C436.2 270.6 436.2 269.05 435.425 268.25C434.65 267.45 434.65 265.9 434.65 264.35C434.65 262.8 433.075 258.875 429.95 258.875C426.05 258.875 422.925 259.65 419 260.45C420.575 259.675 417.425 255.75 416.65 255.75C412.75 255.75 408.05 254.175 402.575 251.05C397.1 247.925 393.2 246.35 390.075 246.35C387.725 246.35 383.05 247.125 379.925 248.7C381.5 247.925 381.5 247.125 382.275 244.8L377.575 236.975L376.8 236.2C375.225 236.2 373.675 236.975 372.1 238.55C370.525 239.325 368.2 238.55 368.2 235.425C368.2 234.65 368.975 233.85 368.975 233.85C369.75 233.075 369.75 233.075 368.975 232.275C368.975 229.925 369.75 227.575 372.1 225.25C373.675 223.675 374.45 220.55 375.225 218.225C376.8 217.45 376.8 216.65 376.8 215.875C376.8 214.3 377.575 214.3 378.375 214.3C379.95 214.3 382.275 213.525 383.85 212.725C385.425 211.15 386.975 210.375 389.325 210.375L390.1 208.025C390.1 207.25 387.75 206.45 383.075 205.675C377.6 204.9 375.25 204.9 375.25 203.325L376.025 202.55C380.725 204.125 384.625 204.9 386.975 204.9C391.675 205.675 394 204.125 398.7 201.775C400.275 201 404.95 199.425 408.85 197.075C408.85 196.3 408.075 196.3 405.725 195.5H408.85L414.325 192.375V189.25L412.75 187.675L420.575 186.1C419.8 184.525 421.35 183.75 422.15 183.75C423.725 183.75 425.275 184.525 426.85 186.1C428.425 187.675 429.2 187.675 429.975 187.675L437 185.325C437 184.55 437.775 184.55 439.35 184.55C440.925 183.775 441.7 182.975 440.925 182.2L435.45 176.725C433.875 176.725 433.1 174.375 434.675 174.375C437.025 174.375 438.575 173.6 437.025 171.25C435.45 170.475 433.125 168.9 430.775 168.125C428.425 166.55 426.075 165.775 423.75 165.775C422.175 165.775 419.05 166.55 419.05 168.9C419.05 170.475 419.825 170.475 420.625 170.475C422.2 170.475 422.975 171.25 422.975 172.05C424.55 172.825 423.75 173.625 422.2 173.625H420.625C419.05 173.625 416.725 175.2 415.15 178.325C413.575 180.675 411.25 183.025 408.9 183.8C408.125 183.8 408.125 183.8 408.125 183.025C408.9 182.25 408.125 182.25 408.125 181.45C407.35 180.675 406.55 179.875 405.775 179.875C404.2 179.1 402.65 179.1 402.65 178.3C402.65 176.725 404.225 175.95 405.775 173.6C406.55 171.25 404.2 170.475 400.3 170.475C398.725 170.475 397.175 171.25 396.4 172.825C395.625 173.6 394.825 175.175 394.05 176.725L386.225 168.125L379.975 167.35C379.975 165.775 380.75 164.225 381.55 162.65C383.125 159.525 376.85 155.625 374.525 153.275C373.75 153.275 372.175 152.5 370.625 152.5C369.85 152.5 365.15 156.4 362.025 157.975C360.45 158.75 359.675 159.55 359.675 160.325C359.675 161.9 361.25 161.9 363.575 161.9H362.8C361.225 161.9 360.45 162.675 360.45 165.025C360.45 165.8 366.7 167.375 368.275 167.375C369.85 167.375 371.4 167.375 371.4 168.15C372.175 168.925 372.175 168.925 373.75 168.925L376.1 168.15V169.725L375.325 171.3L376.1 173.65L368.275 177.55L367.5 178.325C366.725 178.325 365.925 178.325 365.925 179.1C365.925 179.875 365.925 181.45 367.5 183C368.275 184.575 367.5 185.35 363.6 185.35L361.25 183.775C361.25 182.2 359.675 180.65 355.775 179.075C348.75 176.725 336.25 175.95 325.3 175.95C319.825 175.175 315.925 175.175 312.8 175.175L301.075 179.075L304.2 185.325C303.425 185.325 301.85 186.1 301.85 186.1C298.725 183.75 294.025 179.075 292.475 179.075L287 178.3C269.8 179.075 249.5 195.5 229.975 215.025C210.45 234.55 193.25 256.425 184.65 269.725H186.225C187.8 269.725 188.575 268.95 190.925 268.15C192.5 267.375 193.275 268.925 193.275 271.275C193.275 272.85 193.275 273.625 192.5 275.175C191.725 276.725 193.275 277.525 196.4 277.525C197.175 277.525 197.975 276.75 197.975 275.175C198.75 273.6 198.75 273.6 198.75 275.175L200.325 280.65V281.425C200.325 282.2 199.55 283 198.75 283.775C196.4 284.55 198.75 286.9 201.1 286.9H205L206.575 286.125L207.35 285.35C207.35 288.475 210.475 289.25 212.825 289.25H213.6C213.6 289.25 212.825 290.825 212.025 291.6C210.45 291.6 210.45 292.375 212.025 293.175L219.85 294.75V295.525L224.55 305.675C224.55 307.25 222.975 311.15 221.425 311.15C219.875 311.15 219.85 310.375 219.85 309.575C220.625 309.575 220.625 308.8 220.625 307.225C220.625 306.45 219.85 305.65 219.85 304.875C219.075 304.1 217.5 304.1 214.375 304.1C213.6 304.1 211.25 304.1 212.8 306.45L216.7 315.05L218.275 316.625C213.575 316.625 212.8 332.25 212.8 336.95L213.575 343.2L214.35 345.55V346.325L213.575 353.35L222.95 368.975H225.3C225.3 369.75 225.3 370.55 224.525 371.325C223.75 372.1 223.75 372.9 223.75 374.45L226.875 376.8C226.875 381.5 228.45 382.275 232.35 386.175C232.35 388.525 235.475 391.65 240.175 394.775C245.65 397.125 248.775 398.675 250.325 399.475C253.45 410.425 258.925 422.125 266.725 429.175L267.5 433.875L265.925 435.45C264.35 435.45 264.35 436.225 265.15 437.025L271.4 440.15C272.975 438.575 273.75 440.15 275.3 442.5C276.875 445.625 277.65 447.2 278.425 447.975V450.325L282.325 455.8L283.9 457.375L285.475 453.475C283.9 449.575 278.45 440.975 273.75 433.95C271.4 430.05 269.05 426.125 266.725 423C265.15 420.65 264.375 419.1 264.375 418.3C264.375 417.5 263.6 408.925 262.8 407.35C263.575 408.125 265.925 408.925 267.5 409.7C269.85 410.475 272.2 411.275 273.75 412.05C274.525 418.3 276.875 423 280.775 426.9C283.9 430.025 287.025 433.925 289.375 438.625C287.8 440.2 290.95 440.2 292.5 440.2C293.275 441.775 293.275 442.55 293.275 445.675C300.3 452.7 314.375 469.125 314.375 476.15V476.925L312.8 481.625C315.925 488.65 322.95 494.125 330 496.475H331.575C335.475 498.825 340.95 501.175 346.425 503.5C351.125 506.625 355.8 508.975 360.5 510.525L368.325 505.825C372.225 506.6 376.925 510.525 382.4 515.2C387.875 519.875 394.9 525.35 404.275 526.925C407.4 524.575 408.975 525.35 408.975 528.5V530.075L417.575 540.225L419.15 544.925C423.85 548.05 429.3 552.75 431.65 558.2L431.725 558.3ZM330.95 165.325L330.175 163.75C328.6 162.975 324.7 161.4 323.15 161.4C322.375 161.4 320.8 162.175 317.675 162.975C312.2 166.1 303.6 168.45 297.35 171.575C294.225 173.15 291.875 173.925 290.325 173.925C293.45 173.925 296.575 173.15 299.7 171.575C302.05 170 305.175 169.225 308.3 169.225L310.65 170.8C312.225 171.575 313 171.575 314.55 171.575C315.325 171.575 316.125 171.575 317.675 173.15C319.25 172.375 320.8 172.375 323.15 173.925L325.5 172.35V169.225L324.725 167.65L326.3 168.425C327.875 168.425 329.425 167.65 331 165.3L330.95 165.325ZM448.9 623.125L449.675 627.825C449.675 629.4 448.9 629.4 448.1 630.95C445.75 632.525 441.85 634.85 441.85 639.55C441.85 640.325 442.625 641.125 442.625 642.675C443.4 643.45 444.2 644.25 444.2 645.8C444.2 646.575 443.425 647.375 443.425 648.15C497.325 638.775 545.775 613 583.275 573.15H582.5C580.925 573.925 578.6 573.925 577.8 573.15L575.45 573.925L571.55 573.15H569.2C567.625 570.8 566.075 569.25 563.725 567.675L562.95 566.9C562.175 566.9 561.375 566.9 561.375 568.475C561.375 561.45 555.9 555.2 549.65 555.2C549.65 555.975 548.875 555.975 548.875 555.975H547.3L545.725 555.2H548.075L549.65 550.5L545.75 548.15L544.975 548.925C541.85 548.15 539.5 546.575 537.95 543.45L535.6 542.675V543.45L534.025 544.225C530.9 545 528.55 545.8 527 546.575C523.875 545.8 521.525 544.225 520.75 543.45L511.375 544.225C511.375 541.1 509.8 537.2 505.9 537.2C501.2 537.2 494.95 537.2 493.4 542.675C493.4 544.25 494.175 546.575 494.975 547.375V550.5L494.2 552.075L493.425 552.85H492.65L490.3 547.375L492.65 544.25C491.875 542.675 491.875 541.9 491.875 540.35C491.875 538.8 491.1 538 491.1 536.45L490.325 535.675H487.975L483.275 538.8H480.15L479.375 540.375C478.6 540.375 478.6 541.15 478.6 541.95C478.6 541.95 477.825 541.95 477.825 542.725L477.05 541.95H473.925C472.35 543.525 471.575 545.85 470.8 548.2L472.375 549.775L468.475 551.35L467.7 552.925L465.35 554.5V555.275H464.575V559.175H463.8C463.025 556.05 460.675 552.925 455.975 550.575H453.625V552.15C453.625 553.725 455.2 554.5 456.75 555.275C458.325 556.85 459.1 558.4 459.875 559.175C459.1 558.4 457.525 559.175 457.525 559.95V561.525L462.225 568.55V581.825L463.8 584.95C462.225 588.85 460.675 592.775 458.325 595.1V594.325L456.75 595.1L455.975 595.875L455.2 599L455.975 599.775V600.55L454.4 598.975L453.625 603.675L449.725 605.25C448.15 606.025 447.375 606.825 448.15 609.15C448.15 610.725 447.375 611.5 445.8 612.275L446.575 613.85L445 616.2C445 616.975 445 617.775 444.225 617.775V620.9L445 626.375L446.575 627.15L448.15 626.375L448.9 623.125Z" fill="url(#paint0_linear_1016_263)"/>
<defs>
<linearGradient id="paint0_linear_1016_263" x1="196.5" y1="170" x2="586" y2="607.5" gradientUnits="userSpaceOnUse">
<stop stop-color="#EB38C6"/>
<stop offset="1" stop-color="#9B4DEF"/>
</linearGradient>
</defs>
</svg>
