<svg width="800" height="800" viewBox="0 0 800 800" fill="none" xmlns="http://www.w3.org/2000/svg">
<path d="M77.2641 726.93H159.734C171.478 726.93 180.998 717.408 180.998 705.666V519.264C180.998 507.52 171.477 498 159.734 498H77.2641C65.5203 498 56 507.522 56 519.264V705.666C56 717.408 65.5219 726.93 77.2641 726.93Z" fill="url(#paint0_linear_1016_256)"/>
<path d="M264.764 726.93H347.234C358.978 726.93 368.498 717.408 368.498 705.666V394.264C368.498 382.52 358.977 373 347.234 373H264.764C253.02 373 243.5 382.522 243.5 394.264V705.666C243.5 717.408 253.022 726.93 264.764 726.93Z" fill="url(#paint1_linear_1016_256)"/>
<path d="M452.264 726.93H534.734C546.478 726.93 555.998 717.408 555.998 705.666V244.264C555.998 232.52 546.477 223 534.734 223H452.264C440.52 223 431 232.522 431 244.264V705.666C431 717.408 440.522 726.93 452.264 726.93Z" fill="url(#paint2_linear_1016_256)"/>
<path d="M639.764 726.93H722.234C733.978 726.93 743.498 717.408 743.498 705.666V94.2641C743.498 82.5203 733.977 73 722.234 73H639.764C628.02 73 618.5 82.5219 618.5 94.2641V705.666C618.5 717.408 628.022 726.93 639.764 726.93Z" fill="url(#paint3_linear_1016_256)"/>
<defs>
<linearGradient id="paint0_linear_1016_256" x1="65.6496" y1="498" x2="244.164" y2="602.286" gradientUnits="userSpaceOnUse">
<stop stop-color="#F835C0"/>
<stop offset="1" stop-color="#8652FA"/>
</linearGradient>
<linearGradient id="paint1_linear_1016_256" x1="253.15" y1="373" x2="462.671" y2="452.171" gradientUnits="userSpaceOnUse">
<stop stop-color="#F835C0"/>
<stop offset="1" stop-color="#8652FA"/>
</linearGradient>
<linearGradient id="paint2_linear_1016_256" x1="440.65" y1="223" x2="664.333" y2="282.363" gradientUnits="userSpaceOnUse">
<stop stop-color="#F835C0"/>
<stop offset="1" stop-color="#8652FA"/>
</linearGradient>
<linearGradient id="paint3_linear_1016_256" x1="628.15" y1="73" x2="857.974" y2="120.003" gradientUnits="userSpaceOnUse">
<stop stop-color="#F835C0"/>
<stop offset="1" stop-color="#8652FA"/>
</linearGradient>
</defs>
</svg>
