<svg width="800" height="800" viewBox="0 0 800 800" fill="none" xmlns="http://www.w3.org/2000/svg">
<path d="M333.334 500.003H233.334C176.667 500.003 133.334 456.669 133.334 400.003C133.334 343.336 176.667 300.003 233.334 300.003H333.334C353.334 300.003 366.667 286.669 366.667 266.669C366.667 246.669 353.334 233.336 333.334 233.336H233.334C140 233.336 66.667 306.669 66.667 400.003C66.667 493.336 140 566.669 233.334 566.669H333.334C353.334 566.669 366.667 553.336 366.667 533.336C366.667 513.336 353.334 500.003 333.334 500.003ZM566.667 233.336H466.667C446.667 233.336 433.334 246.669 433.334 266.669C433.334 286.669 446.667 300.003 466.667 300.003H566.667C623.334 300.003 666.667 343.336 666.667 400.003C666.667 456.669 623.334 500.003 566.667 500.003H466.667C446.667 500.003 433.334 513.336 433.334 533.336C433.334 553.336 446.667 566.669 466.667 566.669H566.667C660 566.669 733.334 493.336 733.334 400.003C733.334 306.669 660 233.336 566.667 233.336ZM266.667 400.003C266.667 420.003 280 433.336 300 433.336H500C520 433.336 533.334 420.003 533.334 400.003C533.334 380.003 520 366.669 500 366.669H300C280 366.669 266.667 380.003 266.667 400.003Z" fill="url(#paint0_linear_1019_354)"/>
<defs>
<linearGradient id="paint0_linear_1019_354" x1="66.667" y1="240.022" x2="733.334" y2="559.983" gradientUnits="userSpaceOnUse">
<stop stop-color="#FB34BE"/>
<stop offset="1" stop-color="#8253FC"/>
</linearGradient>
</defs>
</svg>
