<svg width="800" height="800" viewBox="0 0 800 800" fill="none" xmlns="http://www.w3.org/2000/svg">
<path d="M507.143 514.289C534.757 514.289 557.143 536.675 557.143 564.289V621.488L556.918 624.587C548.039 685.336 493.472 714.547 401.908 714.547C310.675 714.547 255.237 685.67 243.27 625.62L242.857 621.432V564.289C242.857 536.675 265.243 514.289 292.857 514.289H507.143ZM521.255 342.858L692.857 342.86C720.471 342.86 742.857 365.246 742.857 392.86V450.06L742.632 453.159C733.753 513.907 679.186 543.119 587.622 543.119L582.816 543.073C574 511.561 546.03 488.049 512.251 485.881L507.143 485.718L480.793 485.738C509.937 462.168 528.571 426.119 528.571 385.718C528.571 370.689 525.993 356.264 521.255 342.858ZM107.143 342.86L278.745 342.858C274.007 356.264 271.429 370.689 271.429 385.718C271.429 423.742 287.935 457.912 314.174 481.451L319.207 485.738L292.857 485.718C256.794 485.718 226.406 510.014 217.168 543.13L216.194 543.119C124.96 543.119 69.5229 514.242 57.556 454.191L57.1428 450.003V392.86C57.1428 365.246 79.5286 342.86 107.143 342.86ZM400 285.718C455.228 285.718 500 330.489 500 385.718C500 440.946 455.228 485.718 400 485.718C344.771 485.718 300 440.946 300 385.718C300 330.489 344.771 285.718 400 285.718ZM585.714 114.289C640.943 114.289 685.714 159.061 685.714 214.289C685.714 269.518 640.943 314.289 585.714 314.289C530.486 314.289 485.714 269.518 485.714 214.289C485.714 159.061 530.486 114.289 585.714 114.289ZM214.286 114.289C269.514 114.289 314.286 159.061 314.286 214.289C314.286 269.518 269.514 314.289 214.286 314.289C159.057 314.289 114.286 269.518 114.286 214.289C114.286 159.061 159.057 114.289 214.286 114.289Z" fill="url(#paint0_linear_1016_191)"/>
<defs>
<linearGradient id="paint0_linear_1016_191" x1="140.5" y1="238.5" x2="663.5" y2="645.5" gradientUnits="userSpaceOnUse">
<stop stop-color="#E03BCC"/>
<stop offset="1" stop-color="#8452FA"/>
</linearGradient>
</defs>
</svg>
