<svg width="800" height="800" viewBox="0 0 800 800" fill="none" xmlns="http://www.w3.org/2000/svg">
<path d="M731.621 599.04C729.916 603.998 727.065 608.483 723.3 612.132C719.535 615.781 714.963 618.491 709.954 620.04L619.621 646.707L563.288 722.374C560.218 726.575 556.207 729.999 551.577 732.372C546.946 734.746 541.824 736.002 536.621 736.04C531.304 735.978 526.078 734.645 521.381 732.151C516.684 729.658 512.652 726.077 509.621 721.707L413.621 584.707C410.173 579.939 408.048 574.344 407.463 568.489C406.877 562.635 407.852 556.73 410.288 551.374C412.441 546.21 415.86 541.671 420.229 538.176C424.598 534.681 429.777 532.341 435.288 531.374C464.583 526.264 492.351 514.62 516.53 497.308C540.709 479.996 560.678 457.46 574.954 431.374C577.705 426.463 581.654 422.328 586.433 419.356C591.213 416.383 596.667 414.669 602.288 414.374C607.941 414.104 613.569 415.279 618.643 417.787C623.717 420.294 628.068 424.052 631.288 428.707L727.621 569.374C730.555 573.664 732.444 578.582 733.139 583.733C733.833 588.884 733.313 594.126 731.621 599.04ZM364.954 532.374C335.659 527.264 307.891 515.62 283.712 498.308C259.533 480.996 239.564 458.46 225.288 432.374C222.513 427.473 218.542 423.355 213.745 420.404C208.948 417.454 203.482 415.766 197.857 415.5C192.231 415.234 186.63 416.397 181.576 418.881C176.522 421.366 172.18 425.09 168.954 429.707L72.9544 569.374C69.9417 573.712 68.003 578.704 67.2982 583.939C66.5933 589.173 67.1424 594.5 68.9003 599.481C70.6582 604.462 73.5745 608.953 77.4089 612.586C81.2433 616.218 85.886 618.888 90.9544 620.374L180.954 647.04L237.288 722.707C240.358 726.908 244.368 730.333 248.999 732.706C253.629 735.079 258.751 736.335 263.954 736.374C269.272 736.311 274.497 734.978 279.194 732.484C283.891 729.991 287.924 726.41 290.954 722.04L386.954 585.04C390.403 580.273 392.527 574.677 393.113 568.823C393.698 562.968 392.723 557.063 390.288 551.707C388.161 546.932 384.94 542.725 380.887 539.424C376.834 536.124 372.061 533.823 366.954 532.707L364.954 532.374Z" fill="#914FF3"/>
<path d="M408.667 66.5C554.562 66.5002 672.833 184.772 672.833 330.667C672.833 476.562 554.562 594.833 408.667 594.833C262.772 594.833 144.5 476.562 144.5 330.667C144.5 184.772 262.772 66.5 408.667 66.5Z" fill="url(#paint0_linear_1016_272)" stroke="white" stroke-width="5"/>
<defs>
<linearGradient id="paint0_linear_1016_272" x1="408.667" y1="64" x2="408.667" y2="597.333" gradientUnits="userSpaceOnUse">
<stop stop-color="#FA34BF"/>
<stop offset="1" stop-color="#7F54FD"/>
</linearGradient>
</defs>
</svg>
