<svg width="800" height="800" viewBox="0 0 800 800" fill="none" xmlns="http://www.w3.org/2000/svg">
<path d="M477.32 522.761C477.32 522.761 759.68 319.001 728.36 85.8006C728.049 81.8406 726.479 78.0839 723.88 75.0806C720.993 72.4038 717.285 70.7826 713.36 70.4806C485.48 38.4406 286.4 327.361 286.4 327.361C113.68 306.681 126.24 341.121 47.4396 530.401C32.3596 566.481 56.7996 578.921 83.5996 568.761L169.52 536.321L273.12 642.241L241.4 730.201C231.48 757.641 243.6 782.641 278.92 767.241C463.88 686.601 497.56 699.481 477.32 522.761ZM517.68 286.121C506.172 274.229 499.738 258.329 499.738 241.781C499.738 225.232 506.172 209.332 517.68 197.441C523.306 191.642 530.04 187.032 537.481 183.883C544.922 180.735 552.92 179.113 561 179.113C569.079 179.113 577.077 180.735 584.518 183.883C591.96 187.032 598.693 191.642 604.32 197.441C615.828 209.332 622.261 225.232 622.261 241.781C622.261 258.329 615.828 274.229 604.32 286.121C598.693 291.919 591.96 296.53 584.518 299.678C577.077 302.826 569.079 304.448 561 304.448C552.92 304.448 544.922 302.826 537.481 299.678C530.04 296.53 523.306 291.919 517.68 286.121Z" fill="url(#paint0_linear_1019_400)"/>
<defs>
<linearGradient id="paint0_linear_1019_400" x1="94.5086" y1="68" x2="679.1" y2="771.949" gradientUnits="userSpaceOnUse">
<stop stop-color="#E33BCB"/>
<stop offset="1" stop-color="#994DF0"/>
</linearGradient>
</defs>
</svg>
