<svg width="800" height="800" viewBox="0 0 800 800" fill="none" xmlns="http://www.w3.org/2000/svg">
<g clip-path="url(#clip0_1016_321)">
<path d="M773.862 661.809C773.862 661.809 666.766 568.134 641.148 542.546C603.55 505.143 588.508 487.13 601.781 456.716C659.836 338.31 639.755 191.32 541.281 92.8758C417.476 -30.9586 216.689 -30.9586 92.8687 92.8758C-30.9517 216.726 -30.9517 417.452 92.8687 541.318C191.283 639.732 338.319 659.813 456.68 601.773C487.095 588.515 505.151 603.557 542.541 641.171C568.141 666.773 661.772 773.885 661.772 773.885C710.348 822.434 747.723 792.557 770.159 770.151C792.55 747.729 822.44 710.371 773.862 661.809ZM446.901 446.893C375.183 518.566 258.951 518.566 187.262 446.893C115.575 375.219 115.575 258.959 187.262 187.285C258.951 115.612 375.183 115.612 446.901 187.285C518.591 258.959 518.591 375.219 446.901 446.893Z" fill="url(#paint0_linear_1016_321)"/>
</g>
<defs>
<linearGradient id="paint0_linear_1016_321" x1="400" y1="0" x2="400" y2="800" gradientUnits="userSpaceOnUse">
<stop stop-color="#F735C0"/>
<stop offset="1" stop-color="#8054FD"/>
</linearGradient>
<clipPath id="clip0_1016_321">
<rect width="800" height="800" fill="white"/>
</clipPath>
</defs>
</svg>
