<svg width="800" height="800" viewBox="0 0 800 800" fill="none" xmlns="http://www.w3.org/2000/svg">
<path d="M256.403 396.583L303.421 412.253C334.456 422.6 349.973 427.773 361.103 438.9C372.23 450.03 377.403 465.546 387.749 496.583L403.42 543.599C429.566 622.039 442.639 661.259 466.666 661.259C490.693 661.259 503.766 622.039 529.913 543.599L624.503 259.827C642.9 204.634 652.099 177.038 637.533 162.471C622.966 147.904 595.369 157.102 540.176 175.5L256.403 270.09C177.963 296.237 138.742 309.311 138.742 333.336C138.742 357.363 177.963 370.436 256.403 396.583Z" fill="#2A4157" fill-opacity="0.24"/>
<path d="M256.403 396.583L303.421 412.253C334.456 422.6 349.973 427.773 361.103 438.9C372.23 450.03 377.403 465.546 387.749 496.583L403.42 543.599C429.566 622.039 442.639 661.259 466.666 661.259C490.693 661.259 503.766 622.039 529.913 543.599L624.503 259.827C642.9 204.634 652.099 177.038 637.533 162.471C622.966 147.904 595.369 157.102 540.176 175.5L256.403 270.09C177.963 296.237 138.742 309.311 138.742 333.336C138.742 357.363 177.963 370.436 256.403 396.583Z" fill="url(#paint0_linear_1019_337)"/>
<path d="M317.521 461.399L248.799 438.493C239.041 435.239 228.327 436.673 219.768 442.379L183.49 466.566C164.228 479.406 169.355 509.009 191.814 514.623L256.965 530.909C262.936 532.403 267.599 537.066 269.091 543.036L285.379 608.189C290.994 630.646 320.596 635.776 333.436 616.513L357.623 580.233C363.329 571.676 364.763 560.963 361.509 551.203L338.603 482.479C335.286 472.526 327.475 464.716 317.521 461.399Z" fill="url(#paint1_linear_1019_337)"/>
<defs>
<linearGradient id="paint0_linear_1019_337" x1="186.629" y1="155.281" x2="596.835" y2="661.259" gradientUnits="userSpaceOnUse">
<stop stop-color="#E547CC"/>
<stop offset="1" stop-color="#8D51F7"/>
</linearGradient>
<linearGradient id="paint1_linear_1019_337" x1="189.738" y1="436.781" x2="345.087" y2="628.398" gradientUnits="userSpaceOnUse">
<stop stop-color="#E547CC"/>
<stop offset="1" stop-color="#8D51F7"/>
</linearGradient>
</defs>
</svg>
