<svg width="800" height="800" viewBox="0 0 800 800" fill="none" xmlns="http://www.w3.org/2000/svg">
<path fill-rule="evenodd" clip-rule="evenodd" d="M433.047 95.6321C430.854 79.0567 416.72 66.6641 400 66.6641C383.277 66.6641 369.144 79.0544 366.954 95.6321L366.917 95.8987L366.764 97.0017C366.617 98.0091 366.39 99.5494 366.074 101.564C365.444 105.595 364.464 111.51 363.09 118.838C360.334 133.534 356.04 153.718 349.89 175.691C337.09 221.452 318.057 268.133 293.097 293.094C268.136 318.054 221.455 337.087 175.694 349.887C153.721 356.037 133.537 360.331 118.841 363.087C111.513 364.461 105.598 365.441 101.567 366.071C99.5523 366.387 98.012 366.614 97.0047 366.761L95.9017 366.914L95.6643 366.947C95.6613 366.947 95.6673 366.947 95.6643 366.947L95.6307 366.951C79.0553 369.144 66.667 383.277 66.667 399.997C66.667 416.721 79.0573 430.854 95.635 433.044L95.9017 433.081L97.0047 433.234C98.012 433.381 99.5523 433.607 101.567 433.924C105.598 434.554 111.513 435.534 118.841 436.907C133.537 439.664 153.721 443.957 175.694 450.107C221.455 462.907 268.136 481.941 293.097 506.901C318.057 531.861 337.09 578.544 349.89 624.304C356.04 646.277 360.334 666.461 363.09 681.157C364.464 688.484 365.444 694.401 366.074 698.431C366.39 700.444 366.617 701.984 366.764 702.994L366.917 704.097L366.95 704.334C366.95 704.331 366.95 704.337 366.95 704.334C369.14 720.911 383.277 733.331 400 733.331C416.724 733.331 430.857 720.941 433.047 704.364L433.084 704.097L433.237 702.994C433.384 701.984 433.61 700.444 433.927 698.431C434.557 694.401 435.537 688.484 436.91 681.157C439.667 666.461 443.96 646.277 450.11 624.304C462.91 578.544 481.944 531.861 506.904 506.901C531.864 481.941 578.547 462.907 624.307 450.107C646.28 443.957 666.464 439.664 681.16 436.907C688.487 435.534 694.404 434.554 698.434 433.924C700.447 433.607 701.987 433.381 702.997 433.234L704.1 433.081L704.337 433.047C704.334 433.047 704.34 433.047 704.337 433.047C720.914 430.857 733.334 416.721 733.334 399.997C733.334 383.274 720.944 369.141 704.367 366.951L704.1 366.914L702.997 366.761C701.987 366.614 700.447 366.387 698.434 366.071C694.404 365.441 688.487 364.461 681.16 363.087C666.464 360.331 646.28 356.037 624.307 349.887C578.547 337.087 531.864 318.054 506.904 293.094C481.944 268.133 462.91 221.452 450.11 175.691C443.96 153.718 439.667 133.534 436.91 118.838C435.537 111.51 434.557 105.595 433.927 101.564C433.61 99.5494 433.384 98.0091 433.237 97.0017L433.084 95.8987L433.047 95.6321Z" fill="url(#paint0_linear_1019_398)"/>
<defs>
<linearGradient id="paint0_linear_1019_398" x1="89.9705" y1="66.6641" x2="710.03" y2="733.331" gradientUnits="userSpaceOnUse">
<stop stop-color="#EE37C4"/>
<stop offset="1" stop-color="#9050F5"/>
</linearGradient>
</defs>
</svg>
