<svg width="800" height="800" viewBox="0 0 800 800" fill="none" xmlns="http://www.w3.org/2000/svg">
<path d="M315.112 564.333C307.739 580.08 297.461 590.089 286.645 596.511C281.567 599.539 276.319 601.662 271.312 603.103L253.955 538.992H130.762L173.683 755.911C176.32 769.167 187.941 778.714 201.466 778.714H281.886C290.7 778.714 299 774.613 304.372 767.63C309.719 760.623 311.525 751.516 309.206 742.995L279.153 632.009C281.448 631.375 283.792 630.642 286.136 629.787C301.859 624.025 318.142 613.259 330.887 596.145C340.141 583.719 347.342 568.045 351.42 549.075C341.898 547.292 332.036 545.656 321.83 544.192C320.117 551.784 317.822 558.473 315.112 564.333Z" fill="url(#paint0_linear_1016_315)"/>
<path d="M666.064 21.2891C643.456 21.2891 606.981 59.8641 591.259 75.6109C577.587 89.2828 469.97 196.388 196.923 196.388V515.698C469.97 515.698 577.587 622.803 591.259 636.5C606.983 652.223 643.456 690.797 666.064 690.797C688.672 690.797 707.006 672.486 707.006 649.855V62.2078C707.006 39.6 688.672 21.2891 666.064 21.2891Z" fill="url(#paint1_linear_1016_315)"/>
<path d="M159.669 196.391C71.4844 196.391 0 267.85 0 356.058C0 444.242 71.4844 515.702 159.669 515.702V196.391Z" fill="url(#paint2_linear_1016_315)"/>
<path d="M740.064 296.094V415.967C773.17 415.967 800 389.161 800 356.055C800 322.925 773.169 296.094 740.064 296.094Z" fill="url(#paint3_linear_1016_315)"/>
<defs>
<linearGradient id="paint0_linear_1016_315" x1="153.794" y1="520.069" x2="371.376" y2="743.645" gradientUnits="userSpaceOnUse">
<stop stop-color="#FA34BE"/>
<stop offset="1" stop-color="#8353FB"/>
</linearGradient>
<linearGradient id="paint1_linear_1016_315" x1="250.163" y1="-31.5601" x2="850.179" y2="478.754" gradientUnits="userSpaceOnUse">
<stop stop-color="#FA34BE"/>
<stop offset="1" stop-color="#8353FB"/>
</linearGradient>
<linearGradient id="paint2_linear_1016_315" x1="16.6654" y1="171.185" x2="263.449" y2="308.941" gradientUnits="userSpaceOnUse">
<stop stop-color="#FA34BE"/>
<stop offset="1" stop-color="#8353FB"/>
</linearGradient>
<linearGradient id="paint3_linear_1016_315" x1="746.32" y1="286.631" x2="838.961" y2="338.339" gradientUnits="userSpaceOnUse">
<stop stop-color="#FA34BE"/>
<stop offset="1" stop-color="#8353FB"/>
</linearGradient>
</defs>
</svg>
