<svg width="800" height="800" viewBox="0 0 800 800" fill="none" xmlns="http://www.w3.org/2000/svg">
<g clip-path="url(#clip0_1019_365)">
<path d="M785.126 384.976H516.612C509.752 332.22 468.103 290.571 415.347 283.711V15.1975C415.347 6.86766 408.324 0.0078125 400.158 0.0078125C391.991 0.0078125 384.968 7.03099 384.968 15.1975V283.548C332.212 290.408 290.563 332.057 283.704 384.812H15.1897C6.85985 384.812 0 391.836 0 400.002C0 408.169 7.02317 415.192 15.1897 415.192H283.54C290.4 467.947 332.049 509.596 384.805 516.456V784.807C384.805 793.137 391.828 799.996 399.994 799.996C408.161 799.996 415.184 792.973 415.184 784.153V516.293C467.939 509.433 509.589 467.784 516.448 415.028H784.799C793.129 415.028 799.989 408.005 799.989 399.839C800.315 391.836 793.292 384.976 785.126 384.976Z" fill="url(#paint0_linear_1019_365)"/>
<path d="M353.772 259.215V89.5156C217.229 109.932 109.921 217.893 89.5049 353.783H259.041C273.741 309.357 309.347 273.751 353.772 259.215Z" fill="url(#paint1_linear_1019_365)"/>
<path d="M541.111 353.783H710.647C690.394 217.239 583.087 109.932 446.543 89.5156V259.052C490.969 273.751 526.574 309.357 541.111 353.783Z" fill="url(#paint2_linear_1019_365)"/>
<path d="M446.543 540.466V710.002C582.433 689.749 690.394 582.278 710.81 445.734H541.111C525.921 490.977 490.969 525.929 446.543 540.466Z" fill="url(#paint3_linear_1019_365)"/>
<path d="M259.204 446.555H89.5049C109.758 582.445 217.229 690.406 353.772 710.822V540.469C309.347 525.933 274.394 490.98 259.204 446.555Z" fill="url(#paint4_linear_1019_365)"/>
</g>
<defs>
<linearGradient id="paint0_linear_1019_365" x1="5.64632e-06" y1="61.5298" x2="800" y2="738.474" gradientUnits="userSpaceOnUse">
<stop stop-color="#F136C2"/>
<stop offset="1" stop-color="#9F4DEE"/>
</linearGradient>
<linearGradient id="paint1_linear_1019_365" x1="89.5049" y1="109.839" x2="353.775" y2="333.456" gradientUnits="userSpaceOnUse">
<stop stop-color="#F136C2"/>
<stop offset="1" stop-color="#9F4DEE"/>
</linearGradient>
<linearGradient id="paint2_linear_1019_365" x1="446.543" y1="109.839" x2="710.786" y2="333.295" gradientUnits="userSpaceOnUse">
<stop stop-color="#F136C2"/>
<stop offset="1" stop-color="#9F4DEE"/>
</linearGradient>
<linearGradient id="paint3_linear_1019_365" x1="446.543" y1="466.057" x2="710.813" y2="689.675" gradientUnits="userSpaceOnUse">
<stop stop-color="#F136C2"/>
<stop offset="1" stop-color="#9F4DEE"/>
</linearGradient>
<linearGradient id="paint4_linear_1019_365" x1="89.5049" y1="466.878" x2="353.775" y2="690.495" gradientUnits="userSpaceOnUse">
<stop stop-color="#F136C2"/>
<stop offset="1" stop-color="#9F4DEE"/>
</linearGradient>
<clipPath id="clip0_1019_365">
<rect width="800" height="800" fill="white"/>
</clipPath>
</defs>
</svg>
