<svg width="800" height="800" viewBox="0 0 800 800" fill="none" xmlns="http://www.w3.org/2000/svg">
<g clip-path="url(#clip0_1019_391)">
<path d="M319.941 397.581L373.397 344.137C311.199 315.555 235.047 326.826 183.881 378.005C118.236 443.639 118.236 550.461 183.881 616.119C249.514 681.766 356.35 681.766 421.985 616.119C473.15 564.955 484.435 488.791 455.852 426.591L402.397 480.045C407.68 511.258 398.408 544.458 374.367 568.489C334.977 607.892 270.891 607.892 231.502 568.489C192.111 529.098 192.111 465.014 231.502 425.634C255.541 401.581 288.741 392.297 319.941 397.581Z" fill="url(#paint0_linear_1019_391)"/>
<path d="M505.669 376.789C559.3 467.22 547.297 586.068 469.612 663.742C377.697 755.658 228.164 755.658 136.261 663.742C44.3453 571.84 44.3453 422.293 136.261 330.379C213.922 252.706 332.784 240.703 423.214 294.323L471.989 245.534C354.197 166.326 192.686 178.706 88.6297 282.748C-29.5406 400.906 -29.5406 593.201 88.6297 711.359C206.802 829.543 399.072 829.543 517.242 711.359C621.309 607.304 633.677 445.793 554.444 327.987L505.669 376.789Z" fill="url(#paint1_linear_1019_391)"/>
<path d="M798.874 132.56C796.358 126.005 789.992 121.966 782.783 122.294L672.525 127.466L677.71 17.2221C678.024 10.0002 673.985 3.65955 667.431 1.11893C660.916 -1.3967 653.178 0.41424 647.869 5.69861L530.214 123.364L524.263 250.43L310.366 464.313C299.485 461.847 287.608 464.766 279.128 473.244C265.969 486.403 265.969 507.716 279.128 520.875C292.275 534.035 313.6 534.035 326.76 520.875C335.225 512.396 338.158 500.519 335.691 489.625L549.575 275.728L676.628 269.791L794.296 152.11C799.592 146.814 801.391 139.1 798.874 132.56Z" fill="url(#paint2_linear_1019_391)"/>
</g>
<defs>
<linearGradient id="paint0_linear_1019_391" x1="145.297" y1="328.766" x2="460.585" y2="665.341" gradientUnits="userSpaceOnUse">
<stop stop-color="#E13BCC"/>
<stop offset="1" stop-color="#984FF2"/>
</linearGradient>
<linearGradient id="paint1_linear_1019_391" x1="19.1705" y1="194.164" x2="586.664" y2="800.002" gradientUnits="userSpaceOnUse">
<stop stop-color="#E13BCC"/>
<stop offset="1" stop-color="#984FF2"/>
</linearGradient>
<linearGradient id="paint2_linear_1019_391" x1="286.051" y1="2.13726e-06" x2="783.209" y2="530.74" gradientUnits="userSpaceOnUse">
<stop stop-color="#E13BCC"/>
<stop offset="1" stop-color="#984FF2"/>
</linearGradient>
<clipPath id="clip0_1019_391">
<rect width="800" height="800" fill="white"/>
</clipPath>
</defs>
</svg>
