<svg width="800" height="800" viewBox="0 0 800 800" fill="none" xmlns="http://www.w3.org/2000/svg">
<path d="M743 49.2272C743 33.8425 733.769 30.7656 729.154 30.7656H410.692C387.615 30.7656 387.615 53.8425 387.615 53.8425V98.4579C387.615 118.458 399.923 123.073 406.077 123.073H627.615C636.846 124.612 650.692 130.766 650.692 155.381V364.612C652.231 370.766 655.308 384.612 673.769 384.612H723C723 384.612 743 384.612 743 361.535V49.2272Z" fill="url(#paint0_linear_1016_195)"/>
<path d="M550.692 241.532C552.231 226.147 541.461 223.07 536.846 223.07H218.385C195.308 223.07 195.308 246.147 195.308 246.147V290.763C195.308 310.763 207.615 315.378 213.769 315.378H435.308C444.538 316.916 458.385 323.07 458.385 347.686V556.916C459.923 563.07 463 576.916 481.461 576.916H530.692C530.692 576.916 550.692 576.916 550.692 553.84V241.532Z" fill="url(#paint1_linear_1016_195)"/>
<path d="M55.3077 750.767C58.3846 753.844 70.6923 763.075 87.6154 746.152L247.615 586.152C252.231 581.537 266.077 570.767 266.077 592.306V749.229C267.615 755.383 270.692 769.229 289.154 769.229H338.385C338.385 769.229 358.385 769.229 358.385 746.152V433.844C358.385 418.46 349.154 416.921 344.538 415.383H26.0769C3 415.383 3 438.46 3 438.46V483.075C3 503.075 15.3077 507.69 21.4615 507.69H169.154C175.308 507.69 193.769 509.229 176.846 526.152L23 683.075C23 683.075 4.53846 699.998 19.9231 715.383L55.3077 750.767Z" fill="url(#paint2_linear_1016_195)"/>
<defs>
<linearGradient id="paint0_linear_1016_195" x1="387.615" y1="52.9772" x2="742.305" y2="363.194" gradientUnits="userSpaceOnUse">
<stop stop-color="#F536C2"/>
<stop offset="1" stop-color="#934FF3"/>
</linearGradient>
<linearGradient id="paint1_linear_1016_195" x1="195.308" y1="245.282" x2="550.017" y2="555.646" gradientUnits="userSpaceOnUse">
<stop stop-color="#F536C2"/>
<stop offset="1" stop-color="#934FF3"/>
</linearGradient>
<linearGradient id="paint2_linear_1016_195" x1="3" y1="437.594" x2="357.69" y2="747.812" gradientUnits="userSpaceOnUse">
<stop stop-color="#F536C2"/>
<stop offset="1" stop-color="#934FF3"/>
</linearGradient>
</defs>
</svg>
